<mxfile host="app.diagrams.net" modified="2022-08-29T11:53:55.748Z" agent="5.0 (Macintosh)" etag="OgGmYCr0U6QxnXBXgDtr" version="20.2.6" type="github">
  <diagram id="8gTWlTr3HglyYjwETdae" name="第 1 页">
    <mxGraphModel dx="939" dy="556" grid="1" gridSize="10" guides="1" tooltips="1" connect="1" arrows="1" fold="1" page="1" pageScale="1" pageWidth="827" pageHeight="1169" math="1" shadow="0">
      <root>
        <mxCell id="0" />
        <mxCell id="1" parent="0" />
        <mxCell id="fB1kKmx0TNIUG-KfTX_2-1" value="" style="rounded=0;whiteSpace=wrap;html=1;fillColor=#76608a;fontColor=#ffffff;strokeColor=#432D57;" vertex="1" parent="1">
          <mxGeometry x="170" y="280" width="560" height="20" as="geometry" />
        </mxCell>
        <mxCell id="fB1kKmx0TNIUG-KfTX_2-2" value="$$Road \#1$$" style="rounded=0;whiteSpace=wrap;html=1;fillColor=#b0e3e6;strokeColor=#0e8088;" vertex="1" parent="1">
          <mxGeometry x="170" y="430" width="190" height="20" as="geometry" />
        </mxCell>
        <mxCell id="fB1kKmx0TNIUG-KfTX_2-8" value="$$Road \#2$$" style="rounded=0;whiteSpace=wrap;html=1;fillColor=#d0cee2;strokeColor=#56517e;" vertex="1" parent="1">
          <mxGeometry x="360" y="430" width="90" height="20" as="geometry" />
        </mxCell>
        <mxCell id="fB1kKmx0TNIUG-KfTX_2-9" value="$$Road \#3$$" style="rounded=0;whiteSpace=wrap;html=1;fillColor=#fad9d5;strokeColor=#ae4132;" vertex="1" parent="1">
          <mxGeometry x="450" y="430" width="200" height="20" as="geometry" />
        </mxCell>
        <mxCell id="fB1kKmx0TNIUG-KfTX_2-10" value="$$Road \#4$$" style="rounded=0;whiteSpace=wrap;html=1;fillColor=#b1ddf0;strokeColor=#10739e;" vertex="1" parent="1">
          <mxGeometry x="650" y="430" width="80" height="20" as="geometry" />
        </mxCell>
        <mxCell id="fB1kKmx0TNIUG-KfTX_2-11" value="" style="rounded=0;whiteSpace=wrap;html=1;fillColor=#eeeeee;strokeColor=#36393d;" vertex="1" parent="1">
          <mxGeometry x="240" y="320" width="30" height="20" as="geometry" />
        </mxCell>
        <mxCell id="fB1kKmx0TNIUG-KfTX_2-12" value="" style="rounded=0;whiteSpace=wrap;html=1;fillColor=#eeeeee;strokeColor=#36393d;" vertex="1" parent="1">
          <mxGeometry x="500" y="320" width="30" height="20" as="geometry" />
        </mxCell>
        <mxCell id="fB1kKmx0TNIUG-KfTX_2-13" value="" style="rounded=0;whiteSpace=wrap;html=1;fillColor=#eeeeee;strokeColor=#36393d;" vertex="1" parent="1">
          <mxGeometry x="671" y="320" width="30" height="20" as="geometry" />
        </mxCell>
        <mxCell id="fB1kKmx0TNIUG-KfTX_2-14" value="总行驶距离" style="text;html=1;strokeColor=none;fillColor=none;align=center;verticalAlign=middle;whiteSpace=wrap;rounded=0;" vertex="1" parent="1">
          <mxGeometry x="40" y="275" width="100" height="30" as="geometry" />
        </mxCell>
        <mxCell id="fB1kKmx0TNIUG-KfTX_2-15" value="道路长度" style="text;html=1;strokeColor=none;fillColor=none;align=center;verticalAlign=middle;whiteSpace=wrap;rounded=0;" vertex="1" parent="1">
          <mxGeometry x="60" y="425" width="60" height="30" as="geometry" />
        </mxCell>
        <mxCell id="fB1kKmx0TNIUG-KfTX_2-16" value="接管状态的行驶距离" style="text;html=1;strokeColor=none;fillColor=none;align=center;verticalAlign=middle;whiteSpace=wrap;rounded=0;" vertex="1" parent="1">
          <mxGeometry x="20" y="315" width="115" height="30" as="geometry" />
        </mxCell>
        <mxCell id="fB1kKmx0TNIUG-KfTX_2-29" value="" style="rounded=0;whiteSpace=wrap;html=1;fillColor=#eeeeee;strokeColor=#36393d;" vertex="1" parent="1">
          <mxGeometry x="310" y="320" width="30" height="20" as="geometry" />
        </mxCell>
        <mxCell id="fB1kKmx0TNIUG-KfTX_2-36" value="" style="rounded=0;whiteSpace=wrap;html=1;fillColor=#bac8d3;strokeColor=#23445d;" vertex="1" parent="1">
          <mxGeometry x="170" y="360" width="70" height="20" as="geometry" />
        </mxCell>
        <mxCell id="fB1kKmx0TNIUG-KfTX_2-37" value="无人接管行驶距离" style="text;html=1;strokeColor=none;fillColor=none;align=center;verticalAlign=middle;whiteSpace=wrap;rounded=0;" vertex="1" parent="1">
          <mxGeometry x="40" y="355" width="100" height="30" as="geometry" />
        </mxCell>
        <mxCell id="fB1kKmx0TNIUG-KfTX_2-42" value="" style="ellipse;whiteSpace=wrap;html=1;aspect=fixed;direction=south;fillColor=#d80073;fontColor=#ffffff;strokeColor=#A50040;" vertex="1" parent="1">
          <mxGeometry x="320" y="400" width="10" height="10" as="geometry" />
        </mxCell>
        <mxCell id="fB1kKmx0TNIUG-KfTX_2-43" value="" style="ellipse;whiteSpace=wrap;html=1;aspect=fixed;fillColor=#d80073;fontColor=#ffffff;strokeColor=#A50040;" vertex="1" parent="1">
          <mxGeometry x="250" y="400" width="10" height="10" as="geometry" />
        </mxCell>
        <mxCell id="fB1kKmx0TNIUG-KfTX_2-44" value="" style="ellipse;whiteSpace=wrap;html=1;aspect=fixed;direction=south;fillColor=#d80073;fontColor=#ffffff;strokeColor=#A50040;" vertex="1" parent="1">
          <mxGeometry x="510" y="400" width="10" height="10" as="geometry" />
        </mxCell>
        <mxCell id="fB1kKmx0TNIUG-KfTX_2-45" value="" style="ellipse;whiteSpace=wrap;html=1;aspect=fixed;direction=south;fillColor=#d80073;fontColor=#ffffff;strokeColor=#A50040;" vertex="1" parent="1">
          <mxGeometry x="700" y="400" width="10" height="10" as="geometry" />
        </mxCell>
        <mxCell id="fB1kKmx0TNIUG-KfTX_2-46" value="接管标记" style="text;html=1;strokeColor=none;fillColor=none;align=center;verticalAlign=middle;whiteSpace=wrap;rounded=0;" vertex="1" parent="1">
          <mxGeometry x="40" y="390" width="100" height="30" as="geometry" />
        </mxCell>
        <mxCell id="fB1kKmx0TNIUG-KfTX_2-48" value="" style="endArrow=none;dashed=1;html=1;rounded=0;" edge="1" parent="1">
          <mxGeometry width="50" height="50" relative="1" as="geometry">
            <mxPoint x="360" y="380" as="sourcePoint" />
            <mxPoint x="360" y="480" as="targetPoint" />
          </mxGeometry>
        </mxCell>
        <mxCell id="fB1kKmx0TNIUG-KfTX_2-49" value="" style="endArrow=none;dashed=1;html=1;rounded=0;exitX=0.34;exitY=1.033;exitDx=0;exitDy=0;exitPerimeter=0;" edge="1" parent="1">
          <mxGeometry width="50" height="50" relative="1" as="geometry">
            <mxPoint x="170.4000000000001" y="379.99999999999994" as="sourcePoint" />
            <mxPoint x="170" y="480" as="targetPoint" />
          </mxGeometry>
        </mxCell>
        <mxCell id="fB1kKmx0TNIUG-KfTX_2-54" value="" style="rounded=0;whiteSpace=wrap;html=1;fillColor=#bac8d3;strokeColor=#23445d;" vertex="1" parent="1">
          <mxGeometry x="270" y="360" width="40" height="20" as="geometry" />
        </mxCell>
        <mxCell id="fB1kKmx0TNIUG-KfTX_2-55" value="" style="rounded=0;whiteSpace=wrap;html=1;fillColor=#bac8d3;strokeColor=#23445d;" vertex="1" parent="1">
          <mxGeometry x="340" y="360" width="160" height="20" as="geometry" />
        </mxCell>
        <mxCell id="fB1kKmx0TNIUG-KfTX_2-57" value="" style="rounded=0;whiteSpace=wrap;html=1;fillColor=#bac8d3;strokeColor=#23445d;" vertex="1" parent="1">
          <mxGeometry x="530" y="360" width="140" height="20" as="geometry" />
        </mxCell>
        <mxCell id="fB1kKmx0TNIUG-KfTX_2-61" value="$$(MPI | Road \#1)=\frac{无人接管行驶距离}{接管次数}$$" style="text;html=1;align=center;verticalAlign=middle;resizable=0;points=[];autosize=1;strokeColor=none;fillColor=none;" vertex="1" parent="1">
          <mxGeometry x="100" y="480" width="330" height="30" as="geometry" />
        </mxCell>
        <mxCell id="fB1kKmx0TNIUG-KfTX_2-63" value="" style="rounded=0;whiteSpace=wrap;html=1;fillColor=#bac8d3;strokeColor=#23445d;" vertex="1" parent="1">
          <mxGeometry x="701" y="360" width="19" height="20" as="geometry" />
        </mxCell>
      </root>
    </mxGraphModel>
  </diagram>
</mxfile>
